<svg height="512pt" viewBox="0 0 512 512" width="512pt" xmlns="http://www.w3.org/2000/svg"><path d="m374 147.359375c-6.5625 0-13.015625.46875-19.332031 1.359375v-70c0-11.046875-8.953125-20-20-20h-77.972657c-.230468-.007812-.460937-.035156-.695312-.035156-10.660156 0-19.332031-8.675782-19.332031-19.335938v-19.347656c0-11.046875-8.953125-20-20-20h-78.667969c-11.046875 0-20 8.953125-20 20v19.347656c0 10.660156-8.671875 19.335938-19.332031 19.335938-.234375 0-.464844.027344-.695313.035156h-77.972656c-11.046875 0-20 8.953125-20 20v413.28125c0 11.046875 8.953125 20 20 20h314.667969c11.046875 0 20-8.953125 20-20v-70.003906c6.320312.890625 12.769531 1.363281 19.332031 1.363281 76.09375 0 138-61.90625 138-138s-61.90625-138-138-138zm-216.003906-107.359375h38.675781c.273437 25.421875 16.617187 47.058594 39.328125 55.214844v22.785156h-117.332031v-22.785156c22.710937-8.15625 39.054687-29.792969 39.328125-55.214844zm156.671875 432h-274.667969v-373.28125h38.667969v39.28125c0 11.046875 8.953125 20 20 20h157.332031c11.046875 0 20-8.953125 20-20v-39.28125h38.667969v62.0625c-31.753907 15.183594-56.828125 42.15625-69.535157 75.21875h-146.464843c-11.046875 0-20 8.953125-20 20s8.953125 20 20 20h137.65625c-1.941407 28.832031 5.082031 56.449219 19.171875 80h-156.828125c-11.046875 0-20 8.953125-20 20s8.953125 20 20 20h192.945312c7.179688 5.359375 14.898438 10.035156 23.054688 13.9375zm59.332031-88.640625c-54.039062 0-98-43.964844-98-98 0-54.039063 43.960938-98 98-98s98 43.960937 98 98c0 54.035156-43.960938 98-98 98zm0 0"/><path d="m394 277.074219v-51.074219c0-11.046875-8.953125-20-20-20s-20 8.953125-20 20v59.359375c0 5.304687 2.105469 10.390625 5.859375 14.140625l40.484375 40.488281c7.808594 7.808594 20.472656 7.8125 28.285156 0s7.8125-20.476562 0-28.285156zm0 0"/></svg>